<?xml version="1.0"?><svg width="319" height="335" xmlns="http://www.w3.org/2000/svg">
 <title>papaya halved</title>
 <g>
  <title>Layer 1</title>
  <g id="svg_1">
   <path d="m164,86.427994c-42.229004,6.064011 -95.023003,18.722 -122.4823,53.572006c-4.406002,5.591995 -7.288898,11.335999 -9.5956,18c-18.673401,53.949005 58.226902,69.701996 97.0779,63.70401c26.608994,-4.108002 54.576004,-13.59201 76,-30.218018c17.546997,-13.616989 30.707001,-32.161987 48,-45.971985c11.348999,-9.063004 43.153992,-24.707001 37.346008,-43.514008c-2.59201,-8.393997 -12.976013,-13.893997 -21.346008,-13.921005c-13.076996,-0.041992 -24.731995,7.761002 -38,6.831009c-22.738983,-1.59201 -43.673004,-11.831009 -67,-8.48201z" fill="#ff7f00" id="svg_5"/>
   <path d="m212,132l46,-13l-19,12.098007l-23,8.901993l-1,0l-8,-4c3.020004,-16.462006 -21.475006,-5.600006 -29,-5l0,-1c2.826004,-0.449005 12.567001,-3.882004 7.623001,-8.014999c-7.330002,-6.130005 -35.889008,-3.874008 -41.623001,3.014999l-1,0c-5.106995,-5.214996 -23.356003,-3.313004 -22,6c-11.992996,0.007996 -32.523003,2.979004 -33,18l8,0l-3,5c-11.280998,-2.684998 -20.650497,4.186005 -21,16c7.476997,-0.770004 13.564003,-5.393997 17,-12l1,0c-0.375,4.917007 -23.3368,25.970001 -4,20c-2.375,10.526001 13.542,6.312988 19,4l-3,10l21,-5c3.240997,10.675995 16.112,-0.725006 22,-3c3.179993,9.580994 16.373001,-0.619995 19,-6c13.716995,3.769989 16.264999,-7.970001 23.559998,-15.311996c4.331009,-4.360001 9.582001,-5.087997 11.440002,-11.688004c10.320007,2.007004 12.332001,-5.882996 20.014999,-10.199997c7.039993,-3.955002 15.500992,-5.012009 22.985001,-7.917999c7.108002,-2.76001 13.438995,-7.803009 20,-11.628006c3.871002,-2.257004 9.411011,-2.574997 12,-6.253998l-16,4l0,-1l14,-10c-12.778015,3.688004 -22.669006,13.597 -36,16.488998c-7.238007,1.570999 -19.481003,0.835007 -24,7.511002z" fill="#000000" id="svg_6"/>
   <path d="m290,115c-8.196991,17.227005 -28.549011,24.723007 -42,37.093002c-13.688995,12.589996 -25.460007,27.781998 -40,39.39299c-28.438995,22.712006 -72.313995,37.769012 -109,32.938019c-21.108498,-2.779022 -59.1036,-9.524017 -68,-32.424011l-1,0c1.52,11.278992 6.9995,18.847992 13.215302,28c39.166702,57.67099 120.651703,28.938995 164.784698,-7.463989c15.276993,-12.601013 21.514008,-29.354004 34.174011,-43.536011c13.436981,-15.054001 59.375,-26.477005 47.825989,-54z" fill="#007f00" id="svg_7"/>
   <path d="m162,126c-6.837006,-13.251999 -27.582993,9.858994 -7.001999,2.703995c2.362991,-0.821991 4.647995,-1.854996 7.001999,-2.703995m23,-2l-3,1c-2.460007,-3.457993 -17.363998,-7.085999 -17.363998,0.011002c0,8.669998 17.630005,2.028 20.363998,-1.011002m-63,4l0,2c6.526993,1.929001 15.541,1.787994 19,-5l-19,3z" fill="#993300" id="svg_8"/>
   <path d="m162,127l1,1l-1,-1m-23,3l4,3l-1,-4l-3,1z" fill="#ff6600" id="svg_9"/>
   <path d="m207,133c-2.602997,-3.125 -16.343002,-7.862 -17.417999,-0.910004c-1.466003,9.473007 14.388,3.350006 17.417999,0.910004m-57,4c2.690002,0.737 14.889999,0.110992 12.503006,-5.436996c-2.637009,-6.128998 -11.452011,2.436996 -12.503006,5.436996z" fill="#993300" id="svg_10"/>
   <path d="m166,130l-6,7l3,4l9,-9l-6,-2m19,2l1,1l-1,-1z" fill="#ff6600" id="svg_11"/>
   <path d="m106,141c6.516998,0 14.737,0.5 17,-7c-7.751007,0.126999 -14.162003,-2.328995 -17,7z" fill="#993300" id="svg_12"/>
   <path d="m124,133l2,4l3,-4l-5,0z" fill="#ff6600" id="svg_13"/>
   <path d="m136,133.632996c-9.753998,1.534012 -9.160995,11.166 1,9.709c11.522003,-1.653 10.889008,-11.580002 -1,-9.709z" fill="#993300" id="svg_14"/>
   <path d="m148,133l1,1l-1,-1z" fill="#ff6600" id="svg_15"/>
   <path d="m185,136c-8.632996,-11.970001 -26.610992,8.712006 -11,5.445007c1.384003,-0.289001 2.720993,-0.902008 3.998001,-1.487015c2.455002,-1.125 4.731003,-2.511993 7.001999,-3.957993m-95,11c6.737999,-0.451004 12.607002,-4.151993 14,-11c-6.738998,1.414001 -11.688004,4.203003 -14,11z" fill="#7f3f00" id="svg_16"/>
   <path d="m187,136l1,1l-1,-1z" fill="#ff6600" id="svg_17"/>
   <path d="m200,149c7.259003,1.391006 12.192993,-2.753006 13,-10c-7.292999,-1.270996 -11.557999,2.828995 -13,10z" fill="#993300" id="svg_18"/>
   <path d="m100,145l0,1c17.630005,-1.046005 0.026001,13.125 -4,18l4,1l12.098999,-9.585007l13.901001,-13.414993l-1,-3l-25,6z" fill="#ff6600" id="svg_19"/>
   <path d="m176,149c7.278,-0.171005 14.675003,-3.195999 18,-10c-8.233002,0.005997 -14.761002,1.667999 -18,10z" fill="#993300" id="svg_20"/>
   <path d="m193,145l5,2l5,-8c-5.046997,0.164993 -7.274994,1.783997 -10,6m-58,1l0,1c5.938995,-0.270996 12.697998,-1.639008 16,-7l-16,6z" fill="#ff6600" id="svg_21"/>
   <path d="m147,153c7.212006,-0.212997 12.063995,-3.384995 15,-10c-8.274002,-2.421997 -14.895996,1.255005 -15,10z" fill="#993300" id="svg_22"/>
   <path d="m164,143l-1,4l11,1l2,-5l-12,0z" fill="#ff6600" id="svg_23"/>
   <path d="m124.014999,145.572998c-5.440994,1.565002 -12.621002,14.606003 -3.050003,12.313995c7.610001,-1.822998 15.899002,-16.009995 3.050003,-12.313995z" fill="#993300" id="svg_24"/>
   <path d="m96,148l1,1l-1,-1z" fill="#ff6600" id="svg_25"/>
   <path d="m127,161c7.556,-0.223999 14.520004,-4.723999 17,-12c-7.694,-1.598007 -15.216995,4.651001 -17,12m-35,0c6.632004,-0.901993 12.818001,-5.664993 15,-12c-7.961998,0.186996 -13.139,4.080994 -15,12m61,-3c7.569,-0.005997 14.037994,-1.923004 19,-8c-7.028,-2.057999 -16.636002,0.345993 -19,8m27,3c7.718002,-0.223999 15.362,-3.541 16,-12c-8.123001,0.072998 -15.014008,3.151001 -16,12z" fill="#7f3f00" id="svg_26"/>
   <path d="m183,150l1,1l-1,-1m-11,2l0,1c4.804993,1.531998 4.257004,4.710999 3,9l7,-11l-10,1m-32,6l0,1l7,3l5,-2l-1,-5c-4.863998,-0.559006 -7.115997,-0.039993 -11,3z" fill="#ff6600" id="svg_27"/>
   <path d="m74,168c6.022003,-2.332993 11.269997,-7.145996 14,-13c-7.690002,0.516006 -12.402397,5.641998 -14,13m84,0c8.878006,-0.098999 14.477997,-4.431 17,-13c-8.031998,1.186996 -15.434998,4.399994 -17,13m-58,3c6.529007,-2.227997 12.358002,-5.322006 15,-12c-8.182999,0.072998 -13.848999,3.350006 -15,12z" fill="#993300" id="svg_28"/>
   <path d="m112,168c5.218994,-1.675003 11.955002,-2.919998 13,-9c-5.858994,0.735001 -10.158005,3.830002 -13,9z" fill="#ff6600" id="svg_29"/>
   <path d="m129,178c7.647003,-1.796997 16.964005,-9.408997 15,-18c-8.080002,2.824005 -13.475006,9.548996 -15,18z" fill="#993300" id="svg_30"/>
   <path d="m135,161l-8,3c1.641998,5.647003 -1.610001,7.934998 -6,11l0,1l6,1l8,-16z" fill="#7f3f00" id="svg_31"/>
   <path d="m143,175c6.996002,-2.026001 10.925003,-6.529007 14,-13c-7.809998,-1.460007 -13.513,5.748993 -14,13m36,-12l1,3c-6.904007,0.209 -13.029007,3.800995 -14,11c8.630005,-1.119995 14.425995,-4.876007 18,-13l-5,-1z" fill="#993300" id="svg_32"/>
   <path d="m172,165l1,1l-1,-1z" fill="#ff6600" id="svg_33"/>
   <path d="m79,177c6.780998,-0.615005 14.849998,-4.835007 18,-11c-8.742996,0.007004 -14.755997,2.345001 -18,11m29,0c7.25,-0.154999 13.526001,-3.218994 18,-9c-7.229996,-1.826004 -15.850998,1.472 -18,9z" fill="#993300" id="svg_34"/>
   <path d="m110,168l1,1l-1,-1m46,0l-10,11c3.473007,-2.162003 12.682999,-6.380997 10,-11m-48,1l-16,4l0,1c5.175003,0.003006 15.509003,2.520996 16,-5m58,0l-4,1l1,3l2,0l1,-4z" fill="#ff7f00" id="svg_35"/>
   <path d="m147,186c7.102005,-0.713013 16.216003,-4.602997 14,-13c-7.106995,2.164001 -13.451996,4.863998 -14,13z" fill="#993300" id="svg_36"/>
   <path d="m136,177l0,1l5,-3l-5,2z" fill="#ff6600" id="svg_37"/>
   <path d="m87,182l19,-2c-4.310997,-6.498993 -16.258003,-5.233002 -19,2m17,8c7.970001,-0.170013 20.270004,-2.524994 21,-12c-7.612,0.664993 -19.630997,3.320007 -21,12z" fill="#7f3f00" id="svg_38"/>
   <path d="m134,178l1,1l-1,-1z" fill="#ff6600" id="svg_39"/>
   <path d="m125,190c6.906006,-0.602997 14.718994,-3.490997 18,-10c-7.529999,0.022003 -16.638,1.208008 -18,10z" fill="#993300" id="svg_40"/>
  </g>
 </g>
</svg>